<svg id="svg" version="1.1" xmlns="http://www.w3.org/2000/svg" xmlns:xlink="http://www.w3.org/1999/xlink" width="400" height="400" viewBox="0, 0, 400,400"><g id="svgg"><path id="path0" d="M58.800 159.836 C 51.055 161.491,43.466 167.491,39.847 174.822 C 25.781 203.317,62.298 229.607,84.833 207.210 C 104.708 187.458,86.300 153.960,58.800 159.836 M328.800 159.820 C 316.436 162.468,306.836 174.452,306.807 187.274 C 306.750 212.381,337.003 224.944,354.847 207.223 C 374.705 187.502,356.263 153.939,328.800 159.820 M165.687 220.224 C 157.732 225.796,175.458 241.368,192.991 244.211 C 207.655 246.590,224.817 240.055,234.219 228.513 C 237.588 224.377,236.269 220.087,231.507 219.692 L 229.279 219.507 225.339 223.222 C 209.083 238.551,190.085 238.597,174.345 223.347 C 170.139 219.272,168.098 218.536,165.687 220.224 " stroke="none" fill="#1e1d1d" fill-rule="evenodd"></path><path id="path1" d="M0.000 200.000 L 0.000 400.000 3.200 400.000 L 6.400 400.000 6.400 398.860 C 6.400 398.233,6.937 396.928,7.593 395.960 C 8.249 394.992,8.789 394.078,8.793 393.928 C 8.801 393.635,13.563 386.331,13.961 386.000 C 14.094 385.890,15.478 384.270,17.038 382.400 C 19.539 379.399,25.530 373.297,29.600 369.606 C 36.795 363.079,49.638 354.552,61.600 348.360 C 71.491 343.240,77.190 340.831,94.600 334.407 C 96.811 333.592,107.297 330.412,108.585 330.166 C 109.033 330.081,109.850 329.838,110.400 329.627 C 113.018 328.622,127.566 325.366,137.200 323.629 C 189.585 314.185,250.817 317.275,296.800 331.683 C 327.135 341.188,344.791 349.993,366.770 366.577 C 374.871 372.689,389.500 389.096,391.496 394.308 C 391.642 394.688,392.175 395.610,392.681 396.356 C 393.186 397.102,393.600 398.227,393.600 398.856 L 393.600 400.000 396.800 400.000 L 400.000 400.000 400.000 200.000 L 400.000 0.000 200.000 0.000 L 0.000 0.000 0.000 200.000 M73.390 159.008 C 100.004 166.721,101.781 205.897,75.928 214.942 C 74.537 215.429,73.220 215.936,73.000 216.069 C 68.439 218.833,54.765 216.462,48.200 211.769 C 20.965 192.297,41.298 149.708,73.390 159.008 M342.200 158.636 C 359.501 162.950,369.516 182.846,362.365 198.696 C 361.944 199.628,361.600 200.506,361.600 200.647 C 361.600 201.293,357.327 207.077,355.660 208.687 C 344.119 219.836,325.012 219.792,314.400 208.592 C 313.410 207.547,312.228 206.311,311.774 205.846 C 310.345 204.382,308.133 200.316,307.070 197.200 C 299.445 174.841,319.389 152.947,342.200 158.636 M171.081 218.518 C 171.566 218.788,173.671 220.659,175.759 222.677 C 190.502 236.927,209.386 236.751,224.313 222.224 C 229.797 216.888,233.800 216.586,236.562 221.298 C 238.852 225.206,237.202 228.543,230.006 234.562 C 210.470 250.901,185.096 249.897,166.656 232.055 C 161.585 227.149,160.809 223.421,164.118 219.851 C 165.715 218.128,169.184 217.464,171.081 218.518 " stroke="none" fill="#fb7b6b" fill-rule="evenodd"></path><path id="path2" d="M183.800 320.021 C 102.593 323.567,32.876 354.139,8.856 396.736 C 7.945 398.351,7.200 399.746,7.200 399.836 C 7.200 399.926,93.960 400.000,200.000 400.000 C 306.040 400.000,392.800 399.886,392.800 399.746 C 392.800 399.606,391.688 397.625,390.329 395.343 C 361.569 347.063,276.339 315.979,183.800 320.021 " stroke="none" fill="#cbbba3" fill-rule="evenodd"></path><path id="path3" d="M61.400 158.785 C 37.257 161.675,27.549 192.283,45.566 208.707 C 60.136 221.987,83.396 217.061,91.381 199.004 C 100.375 178.668,83.574 156.131,61.400 158.785 M330.698 158.862 C 312.254 161.500,301.038 181.862,308.604 198.970 C 315.317 214.151,331.613 220.138,347.805 213.372 C 352.148 211.557,358.505 205.120,360.777 200.236 C 370.757 178.784,353.864 155.548,330.698 158.862 M71.000 159.798 C 81.285 161.944,90.484 171.197,92.600 181.526 C 98.216 208.932,64.891 226.969,45.156 207.205 C 25.406 187.424,43.585 154.078,71.000 159.798 M340.874 159.800 C 353.505 162.388,363.164 174.278,363.193 187.274 C 363.250 212.397,333.014 224.948,315.167 207.210 C 295.390 187.555,313.483 154.187,340.874 159.800 M166.643 219.284 C 161.636 221.105,161.671 225.666,166.731 230.882 C 184.930 249.638,212.198 250.201,231.480 232.218 C 236.617 227.427,237.664 224.739,235.656 221.491 C 233.149 217.435,230.114 217.896,224.424 223.200 C 208.890 237.680,189.243 237.569,174.881 222.921 C 171.096 219.060,169.362 218.295,166.643 219.284 M174.345 223.347 C 190.085 238.597,209.083 238.551,225.339 223.222 L 229.279 219.507 231.507 219.692 C 241.449 220.517,234.206 232.536,219.276 239.986 C 200.918 249.147,178.677 244.475,165.549 228.700 C 161.955 224.382,163.521 219.600,168.528 219.600 C 170.447 219.600,170.539 219.659,174.345 223.347 M184.000 319.203 C 151.165 320.905,123.219 325.878,95.600 334.935 C 92.630 335.909,89.480 336.984,88.600 337.324 C 81.121 340.211,79.281 340.939,77.658 341.657 C 76.636 342.110,75.440 342.613,75.000 342.777 C 70.528 344.437,51.811 354.358,46.800 357.723 C 41.964 360.971,40.691 361.866,38.688 363.428 C 37.540 364.323,35.160 366.155,33.400 367.499 C 23.591 374.991,7.200 394.495,7.200 398.675 C 7.200 399.060,8.364 397.436,9.787 395.067 C 31.162 359.479,84.267 332.244,150.215 323.048 C 168.225 320.537,179.230 319.825,200.000 319.825 C 287.502 319.825,362.516 349.497,390.255 395.080 C 391.700 397.456,392.770 398.901,392.632 398.291 C 392.282 396.751,389.700 392.599,385.856 387.400 C 374.362 371.850,357.815 358.933,334.400 347.229 C 327.794 343.927,325.880 343.072,317.600 339.729 C 291.103 329.029,256.943 321.788,222.600 319.592 C 213.834 319.032,191.630 318.808,184.000 319.203 " stroke="none" fill="#a35e55" fill-rule="evenodd"></path><path id="path4" d="M61.000 158.016 C 26.693 163.233,27.337 212.309,61.771 216.826 C 65.180 217.273,71.743 216.830,73.000 216.069 C 73.220 215.936,74.537 215.429,75.928 214.942 C 90.278 209.922,98.337 191.920,92.855 177.130 C 88.122 164.359,74.204 156.008,61.000 158.016 M330.664 157.994 C 311.899 161.386,301.020 179.462,307.070 197.200 C 308.133 200.316,310.345 204.382,311.774 205.846 C 312.228 206.311,313.410 207.547,314.400 208.592 C 325.012 219.792,344.119 219.836,355.660 208.687 C 357.327 207.077,361.600 201.293,361.600 200.647 C 361.600 200.506,361.944 199.628,362.365 198.696 C 371.477 178.499,352.441 154.058,330.664 157.994 M72.800 159.648 C 98.281 166.418,101.161 202.753,77.075 213.586 C 47.871 226.720,22.489 190.317,44.600 167.009 C 51.382 159.860,62.588 156.935,72.800 159.648 M338.400 158.853 C 360.325 161.008,371.573 187.871,357.739 205.036 C 354.924 208.529,350.489 212.251,347.805 213.372 C 337.464 217.693,327.168 217.038,319.105 211.546 C 294.013 194.457,308.139 155.879,338.400 158.853 M166.271 218.408 C 160.724 220.072,160.905 226.492,166.656 232.055 C 185.096 249.897,210.470 250.901,230.006 234.562 C 237.202 228.543,238.852 225.206,236.562 221.298 C 233.800 216.586,229.797 216.888,224.313 222.224 C 209.386 236.751,190.502 236.927,175.759 222.677 C 170.736 217.823,169.729 217.370,166.271 218.408 M170.594 219.372 C 171.346 219.686,173.275 221.283,174.881 222.921 C 189.243 237.569,208.890 237.680,224.424 223.200 C 230.114 217.896,233.149 217.435,235.656 221.491 C 237.664 224.739,236.617 227.427,231.480 232.218 C 212.198 250.201,184.930 249.638,166.731 230.882 C 164.494 228.576,163.542 227.270,163.216 226.060 C 161.966 221.419,166.234 217.550,170.594 219.372 M188.800 318.238 C 162.232 319.299,140.741 322.183,117.200 327.847 C 114.010 328.615,110.950 329.416,110.400 329.627 C 109.850 329.838,109.033 330.081,108.585 330.166 C 107.297 330.412,96.811 333.592,94.600 334.407 C 77.190 340.831,71.491 343.240,61.600 348.360 C 49.638 354.552,36.795 363.079,29.600 369.606 C 25.530 373.297,19.539 379.399,17.038 382.400 C 15.478 384.270,14.094 385.890,13.961 386.000 C 13.563 386.331,8.801 393.635,8.793 393.928 C 8.789 394.078,8.249 394.992,7.593 395.960 C 6.440 397.662,5.981 400.000,6.800 400.000 C 7.020 400.000,7.200 399.545,7.200 398.988 C 7.200 394.511,23.181 375.304,33.400 367.499 C 35.160 366.155,37.540 364.323,38.688 363.428 C 40.691 361.866,41.964 360.971,46.800 357.723 C 51.811 354.358,70.528 344.437,75.000 342.777 C 75.440 342.613,76.636 342.110,77.658 341.657 C 79.281 340.939,81.121 340.211,88.600 337.324 C 91.445 336.226,100.856 333.206,106.400 331.612 C 144.726 320.596,190.950 316.387,231.400 320.229 C 264.000 323.326,293.513 330.002,317.600 339.729 C 325.880 343.072,327.794 343.927,334.400 347.229 C 357.815 358.933,374.362 371.850,385.856 387.400 C 390.024 393.038,392.415 396.980,392.688 398.665 C 392.807 399.399,393.061 400.000,393.252 400.000 C 393.943 400.000,393.579 397.681,392.681 396.356 C 392.175 395.610,391.642 394.688,391.496 394.308 C 389.500 389.096,374.871 372.689,366.770 366.577 C 344.930 350.098,326.912 341.091,297.200 331.801 C 266.989 322.355,223.129 316.867,188.800 318.238 M187.900 319.882 C 188.395 319.978,189.205 319.978,189.700 319.882 C 190.195 319.787,189.790 319.709,188.800 319.709 C 187.810 319.709,187.405 319.787,187.900 319.882 M210.300 319.882 C 210.795 319.978,211.605 319.978,212.100 319.882 C 212.595 319.787,212.190 319.709,211.200 319.709 C 210.210 319.709,209.805 319.787,210.300 319.882 " stroke="none" fill="#c9695f" fill-rule="evenodd"></path></g></svg>